<svg version="1.2" xmlns="http://www.w3.org/2000/svg" viewBox="0 0 607 459" width="607" height="459">
	<title>New_Project_1-svg</title>
	<style>
		.s0 { fill: #272727;stroke: #ffffff;paint-order:stroke fill markers;stroke-linecap: round;stroke-linejoin: round;stroke-width: 12 } 
		.s1 { fill: #272727;stroke: #ffffff;stroke-width: 6 } 
		.s2 { fill: #cacaca } 
		.s3 { fill: #272727;stroke: #cacaca;stroke-linecap: round;stroke-linejoin: round;stroke-width: .5 } 
		.s4 { fill: #373737 } 
		.s5 { fill: #ff0000 } 
		.s6 { fill: #272727;stroke: #cacaca;stroke-linecap: round;stroke-linejoin: round;stroke-width: 2.3 } 
		.s7 { fill: #35f900;stroke: #cacaca;stroke-linecap: round;stroke-linejoin: round;stroke-width: 4 } 
		.s8 { fill: none;stroke: #cacaca;stroke-linecap: round;stroke-linejoin: round;stroke-width: 4 } 
		.s9 { fill: #010026;stroke: #cacaca;stroke-linecap: round;stroke-linejoin: round;stroke-width: .4 } 
		.s10 { fill: none;stroke: #00ff00;stroke-linecap: round;stroke-linejoin: round;stroke-width: .9 } 
		.s11 { fill: #161616;stroke: #cacaca;stroke-linecap: round;stroke-linejoin: round;stroke-width: .4 } 
		.s12 { fill: #cacaca;stroke: #cacaca;stroke-linecap: round;stroke-linejoin: round;stroke-width: .4 } 
		.s13 { fill: #0505c4;stroke: #cacaca;stroke-linecap: round;stroke-linejoin: round;stroke-width: 1.3 } 
		.s14 { fill: #f9f000;stroke: #cacaca;stroke-linecap: round;stroke-linejoin: round;stroke-width: 1.3 } 
		.s15 { fill: #dc0404;stroke: #cacaca;stroke-linecap: round;stroke-linejoin: round;stroke-width: 1.3 } 
		.s16 { fill: #35f900;stroke: #cacaca;stroke-linecap: round;stroke-linejoin: round;stroke-width: 1.3 } 
		.s17 { fill: #0505c4 } 
		.s18 { fill: #dc0404 } 
		.s19 { fill: #f9f000 } 
		.s20 { fill: #ffffff } 
	</style>
	<path id="Shape 10" fill-rule="evenodd" class="s0" d="m201 26c0-11 9-20 20-20h165c11 0 20 9 20 20v28h-12v-13c0-11-9-20-20-20h-140c-11 0-20 9-20 20v13h-13z"/>
	<path id="Shape 2" class="s1" d="m4 76c0-11 9-20 20-20h560c11 0 20 9 20 20v360c0 11-9 20-20 20h-560c-11 0-20-9-20-20z"/>
	<path id="Shape 7" class="s2" d="m599 255v2q0 0.4-11.7 0.7-11.8 0.3-28.5 0.3h-509.6q-16.7 0-28.5-0.3-11.7-0.3-11.7-0.7v-2q0-0.4 11.7-0.7 11.8-0.3 28.5-0.3h509.6q16.7 0 28.5 0.3 11.7 0.3 11.7 0.7z"/>
	<path id="Shape 8" class="s2" d="m203 158.5v195q0 40.6-0.1 69.1-0.1 28.4-0.2 28.4h-3.4q-0.1 0-0.2-28.4-0.1-28.5-0.1-69.1v-195q0-40.6 0.1-69.1 0.1-28.4 0.2-28.4h3.4q0.1 0 0.2 28.4 0.1 28.5 0.1 69.1z"/>
	<path id="Shape 8 copy" class="s2" d="m409 158.5v195q0 40.6-0.1 69.1-0.1 28.4-0.2 28.4h-3.4q-0.1 0-0.2-28.4-0.1-28.5-0.1-69.1v-195q0-40.6 0.1-69.1 0.1-28.4 0.2-28.4h3.4q0.1 0 0.2 28.4 0.1 28.5 0.1 69.1z"/>
	<g id="Strikes">
		<path id="Shape 1" class="s3" d="m279 95h50v25h-50z"/>
		<path id="Layer" class="s4" d="m318.1 107.5l5.6 6.7c0.5 0.5 0.4 1.3-0.1 1.8-0.6 0.4-1.4 0.3-1.8-0.2l-5.3-6.3-5.3 6.3c-0.4 0.5-1.2 0.6-1.8 0.2-0.5-0.5-0.6-1.3-0.1-1.8l5.6-6.7-5.6-6.7c-0.5-0.5-0.4-1.3 0.1-1.8 0.6-0.4 1.4-0.3 1.8 0.2l5.3 6.3 5.3-6.3c0.4-0.5 1.2-0.6 1.8-0.2 0.5 0.5 0.6 1.3 0.1 1.8z"/>
		<path id="Layer copy" class="s5" d="m293.1 107.5l5.6 6.7c0.5 0.5 0.4 1.3-0.1 1.8-0.6 0.4-1.4 0.3-1.8-0.2l-5.3-6.3-5.3 6.3c-0.4 0.5-1.2 0.6-1.8 0.2-0.5-0.5-0.6-1.3-0.1-1.8l5.6-6.7-5.6-6.7c-0.5-0.5-0.4-1.3 0.1-1.8 0.6-0.4 1.4-0.3 1.8 0.2l5.3 6.3 5.3-6.3c0.4-0.5 1.2-0.6 1.8-0.2 0.5 0.5 0.6 1.3 0.1 1.8z"/>
	</g>
	<g id="Clock">
		<path id="Shape 1" class="s6" d="m214 138h180v79h-180z"/>
		<g id="2">
			<path id="path6014" class="s5" d="m316 149.3h25.3l2.8 2.8-2.8 2.8h-25.3l-2.8-2.8zm-7.1 50.8v-19.8l2.8-2.8 2.9 2.8v19.8l-2.9 2.8zm33.8-25.4v-19.7l2.8-2.9 2.8 2.9v19.7l-2.8 2.8zm-26.7 25.4h25.3l2.8 2.9-2.8 2.8h-25.3l-2.8-2.8zm0-25.4h8.4l2.8 2.8-2.8 2.8h-8.4l-2.8-2.8zm16.8 0h7.1l2.8 2.8-2.8 2.8h-7.1l-2.8-2.8z"/>
			<path id="path6069" class="s4" d="m317.4 156.3l7 14.1v2.9h-1.4l-7-12.7v-4.3zm8.4 17v-17h5.6v17l-2.8 2.8zm0 25.4v-18.4l2.8-2.8 2.9 2.8v18.4zm-16.9-24v-19.8l2.8-2.8 2.8 2.8v19.8l-2.8 2.8zm33.7 25.4v-19.7l2.9-2.9 2.8 2.9v19.7l-2.8 2.8zm-1.4-43.7v4.2l-7.1 12.7h-1.4v-2.8l7-14.1zm-1.4 42.3l-7-14.1v-2.8h1.4l7 12.7v4.2zm-23.9 0v-4.2l7.1-12.7h1.4v2.8l-7.1 14.1z"/>
		</g>
		<g id="0">
			<path id="path6014" class="s5" d="m358.7 149.3h25.3l2.9 2.8-2.9 2.8h-25.3l-2.8-2.8zm-7 25.4v-19.8l2.8-2.8 2.8 2.8v19.8l-2.8 2.8zm0 25.4v-19.7l2.8-2.9 2.8 2.9v19.7l-2.8 2.8zm33.8-25.4v-19.7l2.8-2.8 2.8 2.8v19.7l-2.8 2.9zm0 25.4v-19.8l2.8-2.8 2.8 2.8v19.8l-2.8 2.8zm-26.7 0h25.3l2.8 2.8-2.8 2.8h-25.3l-2.8-2.8z"/>
			<path id="path6069" class="s4" d="m360.1 156.3l7.1 14.1v2.9h-1.4l-7.1-12.7v-4.3zm8.5 17v-17h5.6v17l-2.8 2.8zm0 25.4v-18.4l2.8-2.8 2.8 2.8v18.4zm-9.8-24h8.4l2.8 2.8-2.8 2.8h-8.4l-2.8-2.8zm16.8 0h7.1l2.8 2.8-2.8 2.9h-7.1l-2.8-2.9zm8.5-18.3v4.2l-7.1 12.7h-1.4v-2.8l7-14.1zm-1.4 42.3l-7-14.1v-2.8h1.4l7 12.7v4.2zm-23.9 0v-4.2l7.1-12.7h1.4v2.8l-7.1 14.1z"/>
		</g>
		<g id="0 copy">
			<path id="path6014" class="s5" d="m223.7 149.3h25.3l2.9 2.8-2.9 2.8h-25.3l-2.8-2.8zm-7 25.4v-19.8l2.8-2.8 2.8 2.8v19.8l-2.8 2.8zm0 25.4v-19.7l2.8-2.9 2.8 2.9v19.7l-2.8 2.8zm33.8-25.4v-19.7l2.8-2.8 2.8 2.8v19.7l-2.8 2.9zm0 25.4v-19.8l2.8-2.8 2.8 2.8v19.8l-2.8 2.8zm-26.7 0h25.3l2.8 2.8-2.8 2.8h-25.3l-2.8-2.8z"/>
			<path id="Shape 2" class="s5" d="m304 205.3c-1.2 0-2.3-1-2.3-2.3 0-1.2 1.1-2.3 2.3-2.3 1.2 0 2.2 1.1 2.2 2.3 0 1.3-1 2.3-2.2 2.3z"/>
			<path id="path6069" class="s4" d="m225.1 156.3l7.1 14.1v2.9h-1.4l-7.1-12.7v-4.3zm8.5 17v-17h5.6v17l-2.8 2.8zm0 25.4v-18.4l2.8-2.8 2.8 2.8v18.4zm-9.8-24h8.4l2.8 2.8-2.8 2.8h-8.4l-2.9-2.8zm16.9 0h7.1l2.8 2.8-2.8 2.9h-7.1l-2.8-2.9zm8.4-18.3v4.2l-7 12.7h-1.4v-2.8l7-14.1zm-1.4 42.3l-7-14.1v-2.8h1.4l7 12.7v4.2zm-23.9 0v-4.2l7.1-12.7h1.4v2.8l-7.1 14.1z"/>
		</g>
		<g id="4">
			<path id="path6016" class="s5" d="m259.4 174.7v-19.8l2.9-2.8 2.8 2.8v19.8l-2.8 2.8zm33.7 0v-19.8l2.8-2.8 2.8 2.8v19.8l-2.8 2.8zm0 25.4v-19.7l2.8-2.9 2.8 2.9v19.7l-2.8 2.8zm-26.7-25.4h8.5l2.8 2.9-2.8 2.8h-8.5l-2.8-2.8zm16.9 0h7l2.8 2.8-2.8 2.8h-7l-2.8-2.8z"/>
			<path id="path6069" class="s4" d="m267.9 156.3l7 14.1v2.9h-1.4l-7-12.7v-4.3zm8.4 17v-17h5.6v17l-2.8 2.8zm0 25.4v-18.4l2.8-2.8 2.9 2.8v18.4zm-9.9-49.4h25.3l2.8 2.8-2.8 2.8h-25.3l-2.8-2.8zm-7 50.8v-19.7l2.8-2.9 2.8 2.9v19.7l-2.8 2.8zm7 0h25.3l2.8 2.9-2.8 2.8h-25.3l-2.8-2.8zm25.3-43.8v4.3l-7 12.7h-1.4v-2.9l7-14.1zm-1.4 42.3l-7-14.1v-2.8h1.4l7 12.7v4.2zm-23.9 0v-4.2l7-12.7h1.4v2.8l-7 14.1z"/>
		</g>
	</g>
	<path id="Status" class="s7" d="m181 286c-5.5 0-10-4.5-10-10 0-5.5 4.5-10 10-10 5.5 0 10 4.5 10 10 0 5.5-4.5 10-10 10z"/>
	<path id="Status" class="s8" d="m579 86c-5.5 0-10-4.5-10-10 0-5.5 4.5-10 10-10 5.5 0 10 4.5 10 10 0 5.5-4.5 10-10 10z"/>
	<path id="Status copy" class="s7" d="m579 286c-5.5 0-10-4.5-10-10 0-5.5 4.5-10 10-10 5.5 0 10 4.5 10 10 0 5.5-4.5 10-10 10z"/>
	<g id="Maze">
		<path id="Shape 2" class="s9" d="m427.7 299.7h132.6v132.6h-132.6z"/>
		<path id="Shape 3" class="s10" d="m459.7 410.6c-5.7 0-10.3-4.6-10.3-10.3 0-5.7 4.6-10.3 10.3-10.3 5.7 0 10.3 4.6 10.3 10.3 0 5.7-4.6 10.3-10.3 10.3z"/>
		<path id="Shape 3 copy" class="s10" d="m505.4 387.7c-5.7 0-10.3-4.6-10.3-10.3 0-5.7 4.6-10.3 10.3-10.3 5.7 0 10.3 4.6 10.3 10.3 0 5.7-4.6 10.3-10.3 10.3z"/>
		<path id="Shape 1" class="s11" d="m430 302h13.7v13.7h-13.7zm114.3 114.3h13.7v13.7h-13.7zm0-22.8h13.7v13.7h-13.7zm-22.9 22.8h13.7v13.7h-13.7zm0-22.8h13.7v13.7h-13.7zm-22.8 22.9h13.7v13.7h-13.7zm0-22.9h13.7v13.7h-13.7zm-22.9 22.9h13.7v13.7h-13.7zm-22.8 0h13.7v13.7h-13.7zm-22.9 0h13.7v13.7h-13.7zm45.7-22.8h13.7v13.7h-13.7zm-22.8 0h13.7v13.7h-13.7zm91.4-22.9h13.7v13.8h-13.7zm-22.9 0h13.7v13.7h-13.7zm-91.4 22.8h13.7v13.7h-13.7zm68.6-22.8h13.7v13.7h-13.7zm-22.9 0h13.7v13.7h-13.7zm-22.8 0h13.7v13.7h-13.7zm-22.9 0h13.7v13.7h-13.7zm114.3-22.8h13.7v13.7h-13.7zm-22.9 0h13.7v13.7h-13.7zm-22.8 0h13.7v13.7h-13.7zm45.7-22.8h13.7v13.7h-13.7zm-22.9 0h13.7v13.7h-13.7zm-22.8 0h13.7v13.7h-13.7zm-22.9 22.9h13.7v13.7h-13.7zm-22.8 0h13.7v13.7h-13.7zm-22.9 0h13.7v13.7h-13.7zm45.7-22.8h13.7v13.7h-13.7zm-22.8 0h13.7v13.7h-13.7zm-22.9 0h13.7v13.7h-13.7zm22.9-22.9h13.7v13.8h-13.7zm91.4 0h13.7v13.7h-13.7zm-45.7 0h13.7v13.7h-13.7zm-22.9 0h13.7v13.7h-13.7zm45.7 0h13.7v13.7h-13.7z"/>
		<path id="Shape 5" class="s12" d="m521.4 393.4h13.7v13.7h-13.7z"/>
		<path id="Shape 6" class="s12" d="m573.8 366.3l-6.5 4.2q-0.2 0.1-0.4 0.1-0.2 0-0.4-0.1l-1.5-1q-0.1-0.1-0.1-0.2 0-0.2 0.1-0.3l4.7-3-4.7-3q-0.1-0.1-0.1-0.3 0-0.1 0.1-0.2l1.5-1q0.2-0.1 0.4-0.1 0.2 0 0.4 0.1l6.5 4.2q0.2 0.2 0.2 0.3 0 0.1-0.2 0.3z"/>
		<path id="Shape 6" class="s12" d="m493.7 445.8l-4.2-6.5q-0.1-0.2-0.1-0.4 0-0.2 0.1-0.4l1-1.5q0.1-0.1 0.2-0.1 0.2 0 0.3 0.1l3 4.7 3-4.7q0.1-0.1 0.3-0.1 0.1 0 0.2 0.1l1 1.5q0.1 0.2 0.1 0.4 0 0.2-0.1 0.4l-4.2 6.5q-0.2 0.2-0.3 0.2-0.1 0-0.3-0.2z"/>
		<path id="Shape 6" class="s12" d="m414.2 365.7l6.5-4.2q0.2-0.1 0.4-0.1 0.2 0 0.4 0.1l1.5 1q0.1 0.1 0.1 0.2 0 0.2-0.1 0.3l-4.7 3 4.7 3q0.1 0.1 0.1 0.3 0 0.1-0.1 0.2l-1.5 1q-0.2 0.1-0.4 0.1-0.2 0-0.4-0.1l-6.5-4.2q-0.2-0.2-0.2-0.3 0-0.1 0.2-0.3z"/>
		<path id="Shape 6" class="s12" d="m494.3 286.2l4.2 6.5q0.1 0.2 0.1 0.4 0 0.2-0.1 0.4l-1 1.5q-0.1 0.1-0.2 0.1-0.2 0-0.3-0.1l-3-4.7-3 4.7q-0.1 0.1-0.3 0.1-0.1 0-0.2-0.1l-1-1.5q-0.1-0.2-0.1-0.4 0-0.2 0.1-0.4l4.2-6.5q0.2-0.2 0.3-0.2 0.1 0 0.3 0.2z"/>
		<path id="Shape 4" class="s5" d="m489.2 354.8l-12.9 6.5q-0.3 0.2-0.4 0.1-0.2-0.1-0.2-0.3v-13q0-0.2 0.2-0.3 0.1-0.1 0.4 0l12.9 6.5q0.2 0.1 0.2 0.3 0 0.1-0.2 0.2z"/>
	</g>
	<g id="Simon Saas">
		<path id="Shape 1" class="s13" d="m104 267l42.3 42.3-42.3 42.2-42.3-42.2z"/>
		<path id="Shape 2" class="s14" d="m150.7 313.7l42.3 42.3-42.3 42.3-42.2-42.3z"/>
		<path id="Shape 3" class="s15" d="m57.3 313.7l42.2 42.3-42.2 42.3-42.3-42.3z"/>
		<path id="Shape 4" class="s16" d="m104 360.5l42.3 42.2-42.3 42.3-42.3-42.3z"/>
	</g>
	<g id="Wires">
		<g id="Cable">
			<path id="Shape 1" class="s2" d="m429 125h19.3v20h-19.3z"/>
			<path id="Shape 1 copy" class="s2" d="m559.6 125h19.2v20h-19.2z"/>
			<path id="Shape 2" class="s17" d="m570.9 131.8v6.4q0 0.7-7.5 1.2-7.4 0.6-17.9 0.6h-84.4q-10.5 0-17.9-0.6-7.5-0.5-7.5-1.2v-6.4q0-0.7 7.5-1.2 7.4-0.6 17.9-0.6h84.4q10.5 0 17.9 0.6 7.5 0.5 7.5 1.2z"/>
		</g>
		<g id="Cable copy 5">
			<path id="Shape 1" class="s2" d="m429 150h19.3v20h-19.3z"/>
			<path id="Shape 1 copy" class="s2" d="m559.6 150h19.2v20h-19.2z"/>
		</g>
		<g id="Cable copy 4">
			<path id="Shape 1" class="s2" d="m429 100h19.3v20h-19.3z"/>
			<path id="Shape 1 copy" class="s2" d="m559.6 100h19.2v20h-19.2z"/>
			<path id="Shape 2" class="s18" d="m570.9 106.8v6.4q0 0.7-7.5 1.2-7.4 0.6-17.9 0.6h-84.4q-10.5 0-17.9-0.6-7.5-0.5-7.5-1.2v-6.4q0-0.7 7.5-1.2 7.4-0.6 17.9-0.6h84.4q10.5 0 17.9 0.6 7.5 0.5 7.5 1.2z"/>
		</g>
		<g id="Cable copy 3">
			<path id="Shape 1" class="s2" d="m429 175h19.3v20h-19.3z"/>
			<path id="Shape 1 copy" class="s2" d="m559.6 175h19.2v20h-19.2z"/>
			<path id="Shape 2" class="s19" d="m570.9 181.8v6.4q0 0.7-7.5 1.2-7.4 0.6-17.9 0.6h-84.4q-10.5 0-17.9-0.6-7.5-0.5-7.5-1.2v-6.4q0-0.7 7.5-1.2 7.4-0.6 17.9-0.6h84.4q10.5 0 17.9 0.6 7.5 0.5 7.5 1.2z"/>
		</g>
		<g id="Cable copy 2">
			<path id="Shape 1" class="s2" d="m429 200h19.3v20h-19.3z"/>
			<path id="Shape 1 copy" class="s2" d="m559.6 200h19.2v20h-19.2z"/>
		</g>
		<g id="Cable copy">
			<path id="Shape 1" class="s2" d="m429 225h19.3v20h-19.3z"/>
			<path id="Shape 1 copy" class="s2" d="m559.6 225h19.2v20h-19.2z"/>
			<path id="Shape 2" class="s20" d="m570.9 231.8v6.4q0 0.7-7.5 1.2-7.4 0.6-17.9 0.6h-84.4q-10.5 0-17.9-0.6-7.5-0.5-7.5-1.2v-6.4q0-0.7 7.5-1.2 7.4-0.6 17.9-0.6h84.4q10.5 0 17.9 0.6 7.5 0.5 7.5 1.2z"/>
		</g>
	</g>
</svg>